<svg width="38" height="22" viewBox="0 0 38 22" fill="none" xmlns="http://www.w3.org/2000/svg">
<path d="M1.66421 19.6611C0.634036 18.1469 0.141461 16.3356 0.264212 14.5129V7.07347C0.13426 5.2374 0.61939 3.41017 1.64421 1.87576C2.57088 0.692055 4.15421 0.103512 6.39421 0.110124C8.63421 0.116737 10.1509 0.635847 10.9442 1.66745C11.9115 2.94585 12.3836 4.52647 12.2742 6.12122V7.86702H8.13421V5.97243C8.12863 5.47393 8.08517 4.97656 8.00421 4.48454C7.95415 4.12835 7.78928 3.79778 7.53421 3.5422C7.37675 3.40826 7.19394 3.30681 6.99648 3.24379C6.79902 3.18077 6.59086 3.15745 6.38421 3.17519C6.08741 3.13125 5.78418 3.1791 5.51578 3.31222C5.24738 3.44533 5.02685 3.65725 4.88421 3.91913C4.62127 4.61574 4.50555 5.35854 4.54421 6.10138V15.5446C4.49859 16.2923 4.63224 17.0402 4.93421 17.7268C5.07849 17.9745 5.29259 18.175 5.55019 18.3037C5.80779 18.4323 6.09767 18.4835 6.38421 18.4509C6.66576 18.4904 6.95271 18.4407 7.20411 18.3089C7.4555 18.1771 7.65852 17.9699 7.78421 17.7169C8.0261 17.019 8.13132 16.2816 8.0942 15.5446V13.5607H12.2342V15.2767C12.3561 16.895 11.9226 18.5066 11.0042 19.8495C10.1242 20.9407 8.60421 21.4763 6.44421 21.4763C4.28421 21.4763 2.59421 20.8811 1.66421 19.6611Z" fill="#111111"/>
<path d="M17.9149 0.397781H22.6549L26.6549 21.2283H22.7149L22.0049 16.6258H18.6849L17.8849 21.1986H13.8849L17.9149 0.397781ZM21.5649 14.0071L20.3049 5.63517L19.0549 14.0071H21.5649Z" fill="#111111"/>
<path d="M29.7255 3.53228H26.4855V0.397781H37.2055V3.53228H34.0055V21.1986H29.7155L29.7255 3.53228Z" fill="#111111"/>
</svg>
