<svg width="73" height="22" viewBox="0 0 73 22" fill="none" xmlns="http://www.w3.org/2000/svg">
<path d="M0.616455 0.397781H8.74646V2.56019H3.54645V9.43426H7.76645V11.4876H3.54645V19.1155H8.79645V21.1986H0.616455V0.397781Z" fill="#444444"/>
<path d="M11.157 0.397781H13.157L19.157 14.2154V0.397781H21.597V21.2283H19.727L13.727 7.02387V21.1986H11.247L11.157 0.397781Z" fill="#444444"/>
<path d="M24.8276 0.397781H32.9476V2.56019H27.7476V9.43426H32.0076V11.4876H27.7876V19.1155H33.0076V21.1986H24.8276V0.397781Z" fill="#444444"/>
<path d="M35.3582 0.397779H39.5782C41.2412 0.265036 42.8973 0.72586 44.2482 1.69721C45.2482 2.56019 45.7381 3.96873 45.7381 5.92283C45.7381 8.56798 44.8748 10.1848 43.1481 10.7734L46.1481 21.1986H43.3082L40.5582 11.438H38.2881V21.1986H35.3582V0.397779ZM39.3582 9.32515C40.3215 9.41761 41.2849 9.14863 42.0582 8.57128C42.3724 8.20237 42.6073 7.77358 42.7483 7.3113C42.8893 6.84902 42.9335 6.363 42.8781 5.88315C42.8982 5.21019 42.8001 4.53888 42.5882 3.89929C42.5022 3.66346 42.3694 3.44713 42.1976 3.26312C42.0258 3.07911 41.8186 2.93115 41.5882 2.82801C40.939 2.56382 40.2389 2.44526 39.5381 2.48083H38.2482V9.36483L39.3582 9.32515Z" fill="#444444"/>
<path d="M49.6788 19.6611C48.7229 18.0607 48.28 16.21 48.4088 14.3542V7.41073C48.3743 6.07079 48.5429 4.73331 48.9088 3.44301C49.1976 2.47296 49.8114 1.62966 50.6488 1.05246C51.6598 0.44812 52.8301 0.157915 54.0088 0.219237C54.7713 0.14731 55.5404 0.241422 56.2624 0.494993C56.9844 0.748564 57.6418 1.15548 58.1888 1.68729C59.1482 3.02049 59.6016 4.64721 59.4688 6.27993V7.05364H56.7188V6.40888C56.7375 5.63772 56.6772 4.86667 56.5388 4.1076C56.4477 3.62113 56.1767 3.18598 55.7788 2.88753C55.2597 2.58364 54.6603 2.44192 54.0588 2.48084C53.4056 2.42541 52.7563 2.62467 52.2488 3.03632C51.8341 3.42666 51.563 3.94346 51.4788 4.50437C51.3521 5.32146 51.2953 6.1477 51.3088 6.97428V14.7014C51.2294 15.8756 51.4316 17.0518 51.8988 18.1335C52.1702 18.4662 52.5146 18.7329 52.9058 18.9133C53.2969 19.0937 53.7245 19.183 54.1558 19.1744C54.5871 19.1658 55.0108 19.0595 55.3943 18.8636C55.7778 18.6677 56.1112 18.3874 56.3688 18.0442C56.8507 16.9001 57.0595 15.661 56.9788 14.4237V12.9556H54.3188V10.9023H59.6188V21.1986H57.8088L57.5188 18.808C57.2896 19.6022 56.7963 20.2962 56.1191 20.777C55.4419 21.2578 54.6206 21.4973 53.7888 21.4565C53.0067 21.5249 52.2199 21.3961 51.5014 21.0823C50.7829 20.7684 50.1559 20.2795 49.6788 19.6611Z" fill="#444444"/>
<path d="M65.6994 13.8583L61.1694 0.397781H63.8894L67.0994 10.4361L70.2594 0.397781H73.0094L68.5094 13.8583V21.1986H65.7094L65.6994 13.8583Z" fill="#444444"/>
</svg>
